<?xml version="1.0" encoding="UTF-8"?>
<svg id="Layer_1" data-name="Layer 1" xmlns="http://www.w3.org/2000/svg" xmlns:xlink="http://www.w3.org/1999/xlink" viewBox="0 0 2468.82 236.42">
  <defs>
    <clipPath id="clippath">
      <rect x="1748.73" y="25.43" width="398.44" height="185.99" style="fill: none;"/>
    </clipPath>
  </defs>
  <g style="clip-path: url(#clippath);">
    <path d="M1858.59,146.61h-9.15v-11.05c0-3.85-2.73-6.98-6.08-6.98s-6.08,3.13-6.08,6.98v11.05h-9.15v-11.05c0-8.9,6.83-16.13,15.22-16.13s15.23,7.24,15.23,16.13v11.05Z" style="fill: #f6921e;"/>
    <path d="M1843.29,185.16c-12.94,0-23.47-10.53-23.47-23.47s10.53-23.47,23.47-23.47,23.47,10.53,23.47,23.47-10.53,23.47-23.47,23.47M1843.29,147.38c-7.89,0-14.32,6.42-14.32,14.32s6.42,14.32,14.32,14.32,14.32-6.42,14.32-14.32-6.42-14.32-14.32-14.32" style="fill: #f6921e;"/>
    <path d="M1845.91,158.12c0,1.45-1.17,2.62-2.62,2.62s-2.62-1.17-2.62-2.62,1.17-2.62,2.62-2.62,2.62,1.17,2.62,2.62" style="fill: #f6921e;"/>
    <polygon points="1845.91 167.88 1840.68 167.88 1841.96 159.96 1844.72 159.96 1845.91 167.88" style="fill: #f6921e;"/>
    <path d="M1842.13,69.14h-9.17c-.54,0-.99-.44-.99-.99v-8.19c0-.54.44-.99.99-.99h8.19c.54,0,.99.44.99.99v9.17Z" style="fill: #f6921e;"/>
    <path d="M1853.64,69.14h-9.17v-9.17c0-.54.44-.99.99-.99h8.19c.54,0,.99.44.99.99v8.19c0,.54-.44.99-.99.99" style="fill: #f6921e;"/>
    <path d="M1841.14,81.34h-8.19c-.54,0-.99-.44-.99-.99v-8.19c0-.54.44-.99.99-.99h9.17v9.17c0,.54-.44.99-.99.99" style="fill: #f6921e;"/>
    <path d="M1853.64,81.34h-8.19c-.54,0-.99-.44-.99-.99v-9.17h9.17c.54,0,.99.44.99.99v8.19c0,.54-.44.99-.99.99" style="fill: #f6921e;"/>
    <text transform="translate(1914.46 208)" style="fill: #f6921e; font-family: MADEOkineSansPERSONALUSE-Medium, &apos;MADE Okine Sans PERSONAL USE&apos;; font-size: 14.38px; font-weight: 500;"><tspan x="0" y="0">I</tspan><tspan x="3.62" y="0" style="letter-spacing: 0em;">n</tspan><tspan x="12.16" y="0">spi</tspan><tspan x="31.37" y="0" style="letter-spacing: 0em;">r</tspan><tspan x="36.46" y="0">ed Living, I</tspan><tspan x="108.37" y="0" style="letter-spacing: -.01em;">n</tspan><tspan x="116.9" y="0" style="letter-spacing: -.03em;">t</tspan><tspan x="122.82" y="0" style="letter-spacing: 0em;">ellige</tspan><tspan x="158.74" y="0" style="letter-spacing: 0em;">n</tspan><tspan x="167.26" y="0">t Securi</tspan><tspan x="218.6" y="0" style="letter-spacing: -.03em;">t</tspan><tspan x="224.53" y="0" style="letter-spacing: 0em;">y</tspan></text>
    <path d="M1799.37,71.62l-18.31,8.75v-30.8c0-1.81,1.47-3.28,3.28-3.28h11.75c1.81,0,3.28,1.47,3.28,3.28v22.06Z" style="fill: #f6921e;"/>
    <polygon points="2086.95 117.81 2073.55 137.61 2056.35 137.61 2069.28 117.81 2086.95 117.81" style="fill: #f6921e;"/>
    <path d="M1899.24,198.2h-76.04c-1.32,0-2.64,0-3.96,0-.07,0-.14,0-.2,0-.46,0-.92,0-1.38-.03-.3-.01-.61-.03-.91-.05-.28-.02-1.98.06-.92-.07.99-.11-.16-.03-.46-.08-.29-.05-.58-.1-.87-.16-.72-.15-1.44-.32-2.15-.51-.7-.19-1.4-.41-2.09-.65-.27-.1-.54-.21-.82-.3-1.33-.46,1.13.55-.04,0-1.3-.61-2.57-1.26-3.8-2.02-.61-.38-1.19-.79-1.78-1.19-.58-.39-.46.03.3.25-.33-.1-.72-.58-.99-.81-1.08-.92-2.1-1.92-3.06-2.97-.43-.48-.81-.99-1.24-1.47-.62-.7.92,1.32.12.13-.24-.36-.49-.7-.73-1.06-.79-1.2-1.5-2.44-2.12-3.74-.12-.26-.24-.52-.36-.78-.53-1.13.14.36.15.36-.28-.08-.77-2.14-.87-2.47-.41-1.34-.73-2.7-.95-4.08-.1-.6.12-1.28.02.19.02-.27-.07-.62-.09-.9-.08-.91-.11-1.82-.12-2.73-.07-11.17,0-22.34,0-33.51v-39.7c-2.18,2.18-4.36,4.36-6.54,6.53h98.05c4.54,0,9.11.13,13.65,0,.07,0,.13,0,.2,0,3.42,0,6.69-3.01,6.54-6.53-.16-3.54-2.87-6.54-6.54-6.54h-98.05c-4.54,0-9.11-.13-13.65,0-.07,0-.13,0-.2,0-3.53,0-6.53,2.99-6.53,6.54v34.32c0,12.84-.02,25.68,0,38.51.02,11,4.62,21.94,13.07,29.13,7.5,6.38,16.56,9.46,26.37,9.46h78.99c3.42,0,6.69-3.01,6.54-6.53-.16-3.54-2.87-6.54-6.54-6.54" style="fill: #246bfd;"/>
    <path d="M1761.06,109.86c2.89-2.4,5.79-4.8,8.68-7.2,6.92-5.74,13.85-11.48,20.77-17.21,8.32-6.89,16.63-13.78,24.95-20.67l21.21-17.57c3.18-2.64,6.37-5.28,9.55-7.91.68-.56,1.36-1.13,2.04-1.69h-9.24c10.06,8.2,20.6,15.85,30.91,23.74,15.4,11.77,30.79,23.54,46.19,35.31,3.58,2.73,7.15,5.47,10.73,8.2,2.73,2.08,7.43.51,8.94-2.34,1.83-3.46.57-6.72-2.34-8.94-9.71-7.42-19.41-14.84-29.12-22.26-15.25-11.66-30.51-23.32-45.76-34.99-2.43-1.86-4.86-3.72-7.3-5.58-.63-.48-1.25-.96-1.88-1.44-.14-.11-.28-.21-.41-.32-.03-.02-.05-.04-.08-.06,2.84,2.16,0-.06-.63-.57-2.94-2.4-6.28-2.45-9.24,0-3.2,2.65-6.41,5.31-9.61,7.96-6.73,5.58-13.46,11.15-20.19,16.73-8.3,6.88-16.61,13.76-24.91,20.64-7.24,6-14.48,12-21.72,18-3.52,2.92-7.24,5.71-10.62,8.8-.05.04-.1.08-.15.13-2.64,2.19-2.43,7.01,0,9.24,2.81,2.58,6.42,2.34,9.24,0" style="fill: #246bfd;"/>
    <path d="M1938.01,117.98l-11.89,14.88h-19.58c-1.8.07-3.38.38-4.74.95-1.37.57-2.51,1.28-3.45,2.15-.93.87-1.63,1.8-2.1,2.8-.47,1-.7,1.97-.7,2.9-.07,1.13.45,2.13,1.55,3,1.1.87,2.71,1.3,4.85,1.3h.7c2.86,0,5.54.49,8.04,1.45,2.5.97,4.66,2.34,6.49,4.1,1.83,1.77,3.28,3.86,4.35,6.26,1.06,2.4,1.6,5.04,1.6,7.91s-.55,5.58-1.65,8.11c-1.1,2.54-2.6,4.76-4.49,6.66-1.9,1.9-4.11,3.4-6.64,4.51-2.53,1.1-5.23,1.65-8.09,1.65h-22.68v-14.88h21.88c2.13,0,3.85-.47,5.14-1.4,1.3-.93,1.95-2.46,1.95-4.6s-.5-3.46-1.5-3.99c-1-.53-2.56-.8-4.69-.8l-2.7-.1c-2.93,0-5.59-.45-7.99-1.35-2.4-.9-4.48-2.16-6.24-3.79-1.77-1.63-3.15-3.6-4.15-5.89-1-2.3-1.53-4.81-1.6-7.54-.07-2.73.63-5.54,2.1-8.44,1.46-2.9,3.43-5.53,5.89-7.89,2.46-2.36,5.31-4.29,8.54-5.79,3.23-1.5,6.61-2.21,10.14-2.15h31.67Z" style="fill: #246bfd;"/>
    <polygon points="1972.08 186.55 1957.19 186.55 1957.19 168.67 1942.81 168.67 1942.81 186.55 1927.92 186.55 1927.92 137.71 1942.81 119.03 1942.81 153.79 1957.19 153.79 1957.19 118.03 1972.08 118.13 1972.08 186.55" style="fill: #246bfd;"/>
    <path d="M2025.52,118.03v68.53h-14.88v-17.88h-24.17l-10.99,17.88v-23.77l27.97-44.75h22.08ZM2010.64,153.79v-20.88l-12.19,20.88h12.19Z" style="fill: #246bfd;"/>
    <polygon points="2073.55 137.23 2056.35 137.23 2044.3 155.7 2044.3 118.52 2029.41 137.11 2029.41 186.06 2044.3 186.06 2044.3 171.88 2053.38 186.06 2072.17 186.06 2055.79 163.49 2073.55 137.23" style="fill: #246bfd;"/>
    <polygon points="2093.85 186 2078.96 186 2078.96 137.16 2093.85 118.58 2093.85 186" style="fill: #246bfd;"/>
    <path d="M2144.79,138.85v5.99c0,2.46-.42,4.81-1.25,7.04-.83,2.23-1.96,4.24-3.4,6.04-1.43,1.8-3.18,3.4-5.24,4.79l9.79,23.87h-17.38l-11.69-35.76h8.29c2.13,0,3.66-.47,4.59-1.41.93-.94,1.4-2.48,1.4-4.62v-6.03c0-2.14-.47-3.66-1.4-4.57-.93-.9-2.46-1.36-4.59-1.36h-10.69v53.74h-14.89v-48.95l15.68-19.68h9.89c2.86,0,5.56.55,8.09,1.65,2.53,1.1,4.74,2.6,6.64,4.5,1.9,1.9,3.4,4.11,4.5,6.64,1.1,2.53,1.65,5.23,1.65,8.09" style="fill: #246bfd;"/>
  </g>
  <rect x="2190.23" width="276.36" height="236.85" style="fill: #f6921e;"/>
  <rect x="2.23" width="1699.67" height="236.85" style="fill: #246bfd;"/>
  <text transform="translate(267.66 91.38)" style="fill: #fff;"><tspan style="font-family: CenturyGothic, &apos;Century Gothic&apos;; font-size: 27.75px;"><tspan x="0" y="0">Call/Whatsapp</tspan></tspan><tspan style="font-family: CenturyGothic-Bold, &apos;Century Gothic&apos;; font-size: 37px; font-weight: 700;"><tspan x="0" y="44.4">050 981 3022</tspan></tspan></text>
  <text transform="translate(646.95 91.38)" style="fill: #fff;"><tspan style="font-family: CenturyGothic, &apos;Century Gothic&apos;; font-size: 27.75px;"><tspan x="0" y="0">Email</tspan></tspan><tspan style="font-family: CenturyGothic-Bold, &apos;Century Gothic&apos;; font-size: 37px; font-weight: 700;"><tspan x="0" y="44.4">info@shakirdynamics.com</tspan></tspan></text>
  <text transform="translate(1249.58 91.38)" style="fill: #fff;"><tspan style="font-family: CenturyGothic, &apos;Century Gothic&apos;; font-size: 27.75px;"><tspan x="0" y="0">Website</tspan></tspan><tspan style="font-family: CenturyGothic-Bold, &apos;Century Gothic&apos;; font-size: 37px; font-weight: 700;"><tspan x="0" y="44.4">shakirdynamics.com</tspan></tspan></text>
</svg>