<?xml version="1.0" encoding="UTF-8"?>
<svg id="Layer_1" data-name="Layer 1" xmlns="http://www.w3.org/2000/svg" xmlns:xlink="http://www.w3.org/1999/xlink" viewBox="0 0 2468.82 433.27">
  <defs>
    <clipPath id="clippath">
      <rect x=".25" y=".35" width="922.7" height="430.71" style="fill: none;"/>
    </clipPath>
  </defs>
  <g>
    <g style="clip-path: url(#clippath);">
      <path d="M254.67,280.97h-21.19v-25.6c0-8.92-6.31-16.17-14.07-16.17s-14.07,7.25-14.07,16.17v25.6h-21.19v-25.6c0-20.6,15.82-37.36,35.26-37.36s35.26,16.76,35.26,37.36v25.6Z" style="fill: #f6921e;"/>
      <path d="M219.24,370.25c-29.96,0-54.34-24.38-54.34-54.34s24.38-54.34,54.34-54.34,54.34,24.38,54.34,54.34-24.38,54.34-54.34,54.34M219.24,282.75c-18.28,0-33.15,14.87-33.15,33.15s14.87,33.15,33.15,33.15,33.15-14.87,33.15-33.15-14.87-33.15-33.15-33.15" style="fill: #f6921e;"/>
      <path d="M225.3,307.63c0,3.35-2.71,6.06-6.06,6.06s-6.06-2.71-6.06-6.06,2.71-6.06,6.06-6.06,6.06,2.71,6.06,6.06" style="fill: #f6921e;"/>
      <polygon points="225.3 330.24 213.19 330.24 216.16 311.9 222.56 311.9 225.3 330.24" style="fill: #f6921e;"/>
      <path d="M216.54,101.57h-21.25c-1.26,0-2.28-1.02-2.28-2.28v-18.96c0-1.26,1.02-2.28,2.28-2.28h18.96c1.26,0,2.28,1.02,2.28,2.28v21.25Z" style="fill: #f6921e;"/>
      <path d="M243.2,101.57h-21.25v-21.25c0-1.26,1.02-2.28,2.28-2.28h18.96c1.26,0,2.28,1.02,2.28,2.28v18.96c0,1.26-1.02,2.28-2.28,2.28" style="fill: #f6921e;"/>
      <path d="M214.26,129.82h-18.96c-1.26,0-2.28-1.02-2.28-2.28v-18.96c0-1.26,1.02-2.28,2.28-2.28h21.25v21.25c0,1.26-1.02,2.28-2.28,2.28" style="fill: #f6921e;"/>
      <path d="M243.2,129.82h-18.96c-1.26,0-2.28-1.02-2.28-2.28v-21.25h21.25c1.26,0,2.28,1.02,2.28,2.28v18.96c0,1.26-1.02,2.28-2.28,2.28" style="fill: #f6921e;"/>
      <text transform="translate(384.05 423.14)" style="fill: #f6921e; font-family: MADEOkineSansPERSONALUSE-Medium, &apos;MADE Okine Sans PERSONAL USE&apos;; font-size: 33.29px; font-weight: 500;"><tspan x="0" y="0">I</tspan><tspan x="8.39" y="0" style="letter-spacing: 0em;">n</tspan><tspan x="28.17" y="0">spi</tspan><tspan x="72.65" y="0" style="letter-spacing: 0em;">r</tspan><tspan x="84.43" y="0">ed Living, I</tspan><tspan x="250.97" y="0" style="letter-spacing: -.01em;">n</tspan><tspan x="270.71" y="0" style="letter-spacing: -.03em;">t</tspan><tspan x="284.43" y="0">ellige</tspan><tspan x="367.6" y="0" style="letter-spacing: 0em;">n</tspan><tspan x="387.34" y="0">t Securi</tspan><tspan x="506.24" y="0" style="letter-spacing: -.03em;">t</tspan><tspan x="519.95" y="0">y</tspan></text>
      <path d="M117.52,107.32l-42.39,20.25V56.24c0-4.2,3.4-7.6,7.6-7.6h27.2c4.2,0,7.6,3.4,7.6,7.6v51.08Z" style="fill: #f6921e;"/>
      <polygon points="783.5 214.29 752.47 260.14 712.64 260.14 742.57 214.29 783.5 214.29" style="fill: #f6921e;"/>
      <path d="M348.81,400.45h-176.1c-3.06,0-6.12,0-9.18,0-.16,0-.31,0-.47,0-1.07,0-2.13-.02-3.2-.07-.7-.03-1.4-.07-2.1-.12-.65-.05-4.58.13-2.14-.15,2.29-.26-.38-.07-1.06-.18-.68-.12-1.35-.24-2.02-.38-1.67-.34-3.33-.73-4.97-1.18-1.63-.45-3.24-.95-4.83-1.51-.63-.22-1.26-.48-1.89-.69-3.08-1.06,2.62,1.27-.09-.01-3.01-1.42-5.96-2.92-8.79-4.68-1.41-.88-2.74-1.84-4.12-2.76-1.35-.91-1.06.06.69.58-.76-.23-1.66-1.34-2.3-1.88-2.51-2.14-4.87-4.44-7.08-6.89-.99-1.1-1.89-2.29-2.87-3.4-1.43-1.61,2.13,3.06.27.3-.55-.82-1.14-1.62-1.69-2.45-1.83-2.77-3.47-5.66-4.91-8.65-.29-.6-.56-1.21-.84-1.82-1.23-2.62.32.83.35.84-.64-.19-1.77-4.95-2.01-5.71-.94-3.1-1.68-6.26-2.21-9.45-.23-1.39.27-2.96.04.43.04-.62-.15-1.43-.21-2.08-.18-2.11-.26-4.22-.27-6.33-.16-25.87,0-51.74,0-77.6v-91.93c-5.04,5.04-10.09,10.09-15.13,15.13h227.06c10.52,0,21.09.3,31.61,0,.15,0,.3,0,.45,0,7.92,0,15.5-6.96,15.13-15.13-.37-8.2-6.65-15.13-15.13-15.13H121.75c-10.52,0-21.09-.3-31.61,0-.15,0-.3,0-.45,0-8.18,0-15.13,6.93-15.13,15.13v79.49c0,29.73-.05,59.46,0,89.19.04,25.48,10.71,50.8,30.28,67.45,17.37,14.78,38.36,21.9,61.06,21.9h182.92c7.92,0,15.5-6.96,15.13-15.13-.37-8.2-6.65-15.13-15.13-15.13" style="fill: #246bfd;"/>
      <path d="M28.81,195.87c6.7-5.55,13.41-11.11,20.11-16.66,16.04-13.29,32.07-26.57,48.11-39.86,19.26-15.96,38.52-31.91,57.78-47.87l49.11-40.69c7.37-6.11,14.74-12.22,22.12-18.32,1.58-1.31,3.16-2.62,4.74-3.92h-21.4c23.3,18.99,47.7,36.72,71.57,54.97,35.65,27.26,71.3,54.51,106.96,81.77,8.28,6.33,16.57,12.67,24.85,19,6.32,4.83,17.21,1.19,20.71-5.43,4.23-8,1.31-15.55-5.43-20.71-22.48-17.18-44.95-34.37-67.43-51.55-35.33-27.01-70.65-54.01-105.98-81.02-5.63-4.31-11.27-8.61-16.9-12.92-1.45-1.11-2.9-2.22-4.35-3.33-.32-.24-.64-.49-.96-.73-.06-.05-.12-.1-.19-.14,6.57,4.99-.01-.14-1.45-1.31-6.81-5.55-14.55-5.68-21.4,0-7.42,6.15-14.84,12.29-22.26,18.44-15.58,12.91-31.17,25.83-46.75,38.74-19.23,15.94-38.46,31.87-57.7,47.81-16.77,13.9-33.54,27.79-50.31,41.69-8.16,6.76-16.77,13.22-24.59,20.37-.11.1-.24.2-.35.29-6.12,5.07-5.64,16.23,0,21.4,6.51,5.97,14.87,5.41,21.4,0" style="fill: #246bfd;"/>
      <path d="M438.6,214.67l-27.53,34.47h-45.34c-4.16.16-7.83.89-10.99,2.2-3.16,1.31-5.82,2.97-7.98,4.97-2.16,2.01-3.78,4.17-4.86,6.48-1.08,2.31-1.62,4.55-1.62,6.71-.16,2.62,1.04,4.94,3.58,6.94,2.55,2.01,6.28,3.01,11.22,3.01h1.62c6.63,0,12.84,1.12,18.62,3.37,5.78,2.24,10.79,5.41,15.04,9.51,4.24,4.1,7.59,8.93,10.06,14.49,2.47,5.57,3.7,11.67,3.7,18.32s-1.27,12.91-3.82,18.78c-2.54,5.88-6.01,11.02-10.41,15.42-4.4,4.41-9.52,7.88-15.38,10.44-5.86,2.55-12.11,3.82-18.74,3.82h-52.51v-34.47h50.66c4.94,0,8.91-1.08,11.91-3.24,3.01-2.16,4.51-5.7,4.51-10.64s-1.16-8.02-3.47-9.25c-2.31-1.23-5.94-1.85-10.87-1.85l-6.25-.23c-6.79,0-12.95-1.04-18.51-3.12-5.55-2.08-10.37-5.01-14.46-8.79-4.09-3.78-7.29-8.33-9.6-13.65-2.31-5.32-3.55-11.14-3.7-17.47-.16-6.32,1.46-12.84,4.86-19.55,3.39-6.71,7.94-12.8,13.65-18.28,5.7-5.47,12.3-9.95,19.78-13.42,7.48-3.47,15.3-5.13,23.48-4.97h73.33Z" style="fill: #246bfd;"/>
      <polygon points="517.48 373.48 483.01 373.48 483.01 332.07 449.7 332.07 449.7 373.48 415.23 373.48 415.23 260.36 449.7 217.1 449.7 297.6 483.01 297.6 483.01 214.79 517.48 215.02 517.48 373.48" style="fill: #246bfd;"/>
      <path d="M641.24,214.79v158.69h-34.47v-41.41h-55.98l-25.45,41.41v-55.06l64.77-103.64h51.12ZM606.78,297.6v-48.35l-28.22,48.35h28.22Z" style="fill: #246bfd;"/>
      <polygon points="752.47 259.25 712.64 259.25 684.73 302.02 684.73 215.94 650.26 258.98 650.26 372.33 684.73 372.33 684.73 339.49 705.77 372.33 749.26 372.33 711.34 320.06 752.47 259.25" style="fill: #246bfd;"/>
      <polygon points="799.47 372.21 765 372.21 765 259.09 799.47 216.06 799.47 372.21" style="fill: #246bfd;"/>
      <path d="M917.45,263.02v13.88c0,5.71-.96,11.14-2.89,16.31-1.93,5.17-4.55,9.83-7.86,14-3.32,4.16-7.37,7.86-12.15,11.1l22.67,55.29h-40.25l-27.06-82.82h19.2c4.93,0,8.48-1.08,10.64-3.26,2.16-2.17,3.24-5.74,3.24-10.7v-13.96c0-4.96-1.08-8.49-3.24-10.58-2.16-2.09-5.71-3.14-10.64-3.14h-24.75v124.46h-34.47v-113.35l36.32-45.57h22.9c6.63,0,12.87,1.27,18.74,3.82,5.86,2.55,10.99,6.01,15.38,10.41,4.4,4.39,7.86,9.53,10.41,15.38,2.54,5.87,3.82,12.11,3.82,18.74" style="fill: #246bfd;"/>
    </g>
    <g>
      <rect x="962.77" y="406.26" width="1122.19" height="24.81" style="fill: #246bfd;"/>
      <rect x="2084.96" y="406.26" width="383.86" height="24.81" style="fill: #f6921e;"/>
    </g>
  </g>
  <text transform="translate(1499.76 154.44)" style="fill: #246bfd; font-family: MADEOkineSansPERSONALUSE-Bold, &apos;MADE Okine Sans PERSONAL USE&apos;; font-size: 23.25px; font-weight: 700;"><tspan x="0" y="0">BANK</tspan></text>
  <text transform="translate(1499.76 196.29)" style="fill: #246bfd; font-family: MADEOkineSansPERSONALUSE-Regular, &apos;MADE Okine Sans PERSONAL USE&apos;; font-size: 37.2px;"><tspan x="0" y="0">STANBIC BANK</tspan></text>
  <text transform="translate(1499.76 242.78)" style="fill: #246bfd; font-family: MADEOkineSansPERSONALUSE-Regular, &apos;MADE Okine Sans PERSONAL USE&apos;; font-size: 37.2px;"><tspan x="0" y="0">SHAKIR DYNAMICS LTD</tspan></text>
  <text transform="translate(1499.76 293.93)" style="fill: #246bfd; font-family: MADEOkineSansPERSONALUSE-Regular, &apos;MADE Okine Sans PERSONAL USE&apos;; font-size: 37.2px;"><tspan x="0" y="0">9040012868914</tspan></text>
  <text transform="translate(1499.76 340.42)" style="fill: #246bfd; font-family: MADEOkineSansPERSONALUSE-Regular, &apos;MADE Okine Sans PERSONAL USE&apos;; font-size: 37.2px;"><tspan x="0" y="0">TAMALE BRANCH</tspan></text>
  <text transform="translate(2001.9 149.79)" style="fill: #246bfd; font-family: MADEOkineSansPERSONALUSE-Bold, &apos;MADE Okine Sans PERSONAL USE&apos;; font-size: 23.25px; font-weight: 700;"><tspan x="0" y="0">ADDRESS</tspan></text>
  <text transform="translate(2001.9 191.64)" style="fill: #246bfd; font-family: MADEOkineSansPERSONALUSE-Regular, &apos;MADE Okine Sans PERSONAL USE&apos;; font-size: 37.2px;"><tspan x="0" y="0">SHAKIR DYNAMICS LTD</tspan></text>
  <text transform="translate(2001.9 238.13)" style="fill: #246bfd; font-family: MADEOkineSansPERSONALUSE-Regular, &apos;MADE Okine Sans PERSONAL USE&apos;; font-size: 37.2px;"><tspan x="0" y="0">OKAPI ST GM</tspan></text>
  <text transform="translate(2223.84 238.13)" style="fill: #246bfd; font-family: MADEOkineSansPERSONALUSE-Regular, &apos;MADE Okine Sans PERSONAL USE&apos;; font-size: 37.2px;"><tspan x="0" y="0">-</tspan></text>
  <text transform="translate(2245.16 238.13)" style="fill: #246bfd; font-family: MADEOkineSansPERSONALUSE-Regular, &apos;MADE Okine Sans PERSONAL USE&apos;; font-size: 37.2px;"><tspan x="0" y="0">057</tspan></text>
  <text transform="translate(2308.16 238.13)" style="fill: #246bfd; font-family: MADEOkineSansPERSONALUSE-Regular, &apos;MADE Okine Sans PERSONAL USE&apos;; font-size: 37.2px;"><tspan x="0" y="0">-</tspan></text>
  <text transform="translate(2329.48 238.13)" style="fill: #246bfd; font-family: MADEOkineSansPERSONALUSE-Regular, &apos;MADE Okine Sans PERSONAL USE&apos;; font-size: 37.2px;"><tspan x="0" y="0">4277</tspan></text>
  <text transform="translate(2001.9 284.63)" style="fill: #246bfd; font-family: MADEOkineSansPERSONALUSE-Regular, &apos;MADE Okine Sans PERSONAL USE&apos;; font-size: 37.2px;"><tspan x="0" y="0">NORTH LEGON, ACCRA.</tspan></text>
  <text transform="translate(988.32 149.79)" style="fill: #246bfd; font-family: MADEOkineSansPERSONALUSE-Bold, &apos;MADE Okine Sans PERSONAL USE&apos;; font-size: 23.25px; font-weight: 700;"><tspan x="0" y="0">MTN MOBILE MONEY</tspan></text>
  <text transform="translate(988.32 196.29)" style="fill: #246bfd; font-family: MADEOkineSansPERSONALUSE-Regular, &apos;MADE Okine Sans PERSONAL USE&apos;; font-size: 41.85px;"><tspan x="0" y="0">053 976 7722</tspan></text>
  <text transform="translate(988.32 252.08)" style="fill: #246bfd; font-family: MADEOkineSansPERSONALUSE-Regular, &apos;MADE Okine Sans PERSONAL USE&apos;; font-size: 41.85px;"><tspan x="0" y="0">Shakir Dynamics LTD</tspan></text>
  <rect x="1445.6" y="142.82" width="4.65" height="214.81" style="fill: #246bfd;"/>
  <rect x="1947.74" y="142.82" width="4.65" height="214.81" style="fill: #246bfd;"/>
</svg>